<?xml version="1.0" standalone="no"?>
<!DOCTYPE svg PUBLIC "-//W3C//DTD SVG 20010904//EN"
 "http://www.w3.org/TR/2001/REC-SVG-20010904/DTD/svg10.dtd">
<svg version="1.0" xmlns="http://www.w3.org/2000/svg"
 width="278.000000pt" height="81.000000pt" viewBox="0 0 278.000000 81.000000"
 preserveAspectRatio="xMidYMid meet">

<g transform="translate(0.000000,81.000000) scale(0.100000,-0.100000)"
fill="#000000" stroke="none">
<path d="M834 615 c-8 -21 4 -35 31 -35 24 0 35 16 28 38 -6 17 -52 15 -59 -3z"/>
<path d="M1170 494 c0 -136 6 -166 39 -191 26 -20 61 -16 61 7 0 13 -7 20 -18
20 -36 0 -52 32 -52 102 0 69 6 78 51 78 33 0 22 28 -13 32 -31 3 -33 6 -36
46 -2 28 -8 42 -18 42 -11 0 -14 -24 -14 -136z"/>
<path d="M929 531 c-29 -23 -31 -81 -5 -110 15 -16 33 -21 95 -23 64 -3 76 -6
79 -21 7 -37 -16 -47 -104 -47 -77 0 -84 -2 -84 -20 0 -19 7 -20 95 -20 l95 0
20 33 c25 41 25 58 -1 91 -19 24 -26 26 -95 26 -70 0 -74 1 -80 24 -10 40 2
46 92 46 77 0 84 2 84 20 0 18 -7 20 -84 20 -67 0 -88 -4 -107 -19z"/>
<path d="M1347 543 c-28 -7 -47 -57 -47 -123 0 -110 22 -129 148 -130 85 0 92
1 92 20 0 19 -7 20 -89 20 -82 0 -91 2 -105 22 -9 12 -16 43 -16 68 0 25 7 56
16 68 13 19 24 22 90 22 70 0 75 -1 84 -25 6 -16 6 -34 0 -50 -8 -22 -15 -25
-60 -25 -43 0 -50 -3 -50 -20 0 -18 7 -20 54 -20 47 0 57 4 75 26 30 38 28 98
-4 129 -21 22 -32 25 -97 24 -40 -1 -81 -3 -91 -6z"/>
<path d="M2020 530 c0 -18 7 -20 74 -20 83 0 106 -6 106 -26 0 -11 -19 -14
-83 -14 -70 0 -87 -3 -105 -20 -29 -27 -37 -64 -22 -101 19 -45 46 -59 117
-59 56 0 63 2 63 20 0 18 -7 20 -63 20 -69 0 -87 10 -87 50 0 47 28 61 111 58
l74 -3 3 -72 c2 -56 6 -73 17 -73 12 0 15 20 15 109 0 106 -1 110 -26 130 -22
17 -41 21 -110 21 -77 0 -84 -2 -84 -20z"/>
<path d="M2312 534 c-17 -12 -22 -25 -22 -58 0 -61 19 -74 110 -78 63 -3 75
-6 78 -21 7 -37 -16 -47 -104 -47 -77 0 -84 -2 -84 -20 0 -19 7 -20 94 -20 87
0 96 2 110 22 9 12 16 36 16 53 0 17 -7 41 -16 53 -13 19 -24 22 -88 22 -78 0
-94 10 -81 51 6 17 17 19 91 19 77 0 84 2 84 20 0 18 -7 20 -83 20 -59 0 -89
-5 -105 -16z"/>
<path d="M670 518 c-16 -17 -20 -35 -20 -83 0 -86 -16 -105 -86 -105 -41 0
-54 -4 -54 -15 0 -8 -4 -15 -8 -15 -11 0 -92 84 -92 95 0 5 21 31 47 57 l47
48 -32 0 c-23 0 -36 -7 -48 -25 -32 -49 -52 -51 -93 -11 -21 21 -47 36 -60 36
-22 0 -20 -4 23 -50 l47 -50 -21 -30 c-11 -16 -32 -38 -45 -49 -31 -24 -31
-31 -2 -31 13 0 38 15 57 35 19 19 38 35 43 35 5 0 36 -29 69 -65 49 -53 67
-65 91 -65 l31 0 -29 30 -29 30 65 0 c88 0 105 18 111 116 3 39 8 76 12 83 4
6 32 11 62 11 47 0 54 2 54 20 0 18 -7 20 -60 20 -48 0 -63 -4 -80 -22z"/>
<path d="M842 418 c3 -108 5 -123 21 -126 15 -3 17 8 17 122 0 120 -1 126 -20
126 -20 0 -20 -5 -18 -122z"/>
<path d="M1626 518 c-23 -32 -23 -228 -1 -228 12 0 15 17 15 93 0 59 4 97 12
105 7 7 31 12 55 12 l43 0 0 -105 c0 -98 1 -105 20 -105 19 0 20 7 20 105 l0
105 48 0 c26 0 53 -5 60 -12 8 -8 12 -46 12 -106 0 -84 2 -93 18 -90 14 3 17
17 20 89 2 75 0 89 -21 119 l-23 35 -131 3 c-127 2 -132 2 -147 -20z"/>
</g>
</svg>
